<?xml version="1.0" encoding="UTF-8" standalone="no"?>
<!-- Created with Inkscape (http://www.inkscape.org/) -->

<svg
   width="1920"
   height="1080"
   viewBox="0 0 1920 1080"
   version="1.1"
   id="svg1"
   inkscape:version="1.4.2 (f4327f4, 2025-05-13)"
   sodipodi:docname="banner canal.svg"
   xmlns:inkscape="http://www.inkscape.org/namespaces/inkscape"
   xmlns:sodipodi="http://sodipodi.sourceforge.net/DTD/sodipodi-0.dtd"
   xmlns="http://www.w3.org/2000/svg"
   xmlns:svg="http://www.w3.org/2000/svg">
  <sodipodi:namedview
     id="namedview1"
     pagecolor="#ffffff"
     bordercolor="#000000"
     borderopacity="0.25"
     inkscape:showpageshadow="2"
     inkscape:pageopacity="0.0"
     inkscape:pagecheckerboard="0"
     inkscape:deskcolor="#d1d1d1"
     inkscape:document-units="px"
     inkscape:zoom="0.22916667"
     inkscape:cx="669.81818"
     inkscape:cy="202.90909"
     inkscape:window-width="1366"
     inkscape:window-height="697"
     inkscape:window-x="-8"
     inkscape:window-y="-8"
     inkscape:window-maximized="1"
     inkscape:current-layer="layer1" />
  <defs
     id="defs1">
    <inkscape:path-effect
       effect="perspective-envelope"
       up_left_point="896.87917,182.63713"
       up_right_point="1447.0957,370.24609"
       down_left_point="901.09091,580.78974"
       down_right_point="1447.0963,558.93164"
       id="path-effect15"
       is_visible="true"
       lpeversion="1"
       deform_type="perspective"
       horizontal_mirror="false"
       vertical_mirror="false"
       overflow_perspective="false" />
    <inkscape:path-effect
       effect="perspective-envelope"
       up_left_point="338.18182,405.25094"
       up_right_point="899.06994,189.82405"
       down_left_point="338.18182,555.3085"
       down_right_point="903.11188,571.92464"
       id="path-effect14"
       is_visible="true"
       lpeversion="1"
       deform_type="perspective"
       horizontal_mirror="false"
       vertical_mirror="false"
       overflow_perspective="false" />
    <inkscape:path-effect
       effect="slice"
       start_point="901.09091,551.18491"
       end_point="901.09091,343.75453"
       center_point="901.09091,447.46972"
       id="path-effect13"
       is_visible="true"
       lpeversion="1.2"
       lpesatellites=""
       allow_transforms="true" />
    <inkscape:path-effect
       effect="slice"
       start_point="932.65869,370.24645"
       end_point="932.65869,524.69267"
       center_point="932.65869,447.46956"
       id="path-effect12"
       is_visible="true"
       lpeversion="1.2"
       lpesatellites=""
       allow_transforms="true" />
    <inkscape:perspective
       sodipodi:type="inkscape:persp3d"
       inkscape:vp_x="67.360965 : 461.7738 : 1"
       inkscape:vp_y="0 : 1000 : 0"
       inkscape:vp_z="1987.361 : 461.7738 : 1"
       inkscape:persp3d-origin="1027.361 : 281.7738 : 1"
       id="perspective6" />
    <inkscape:path-effect
       effect="perspective-envelope"
       up_left_point="620.29239,989.94648"
       up_right_point="1536.0854,989.94648"
       down_left_point="620.29239,1255.0231"
       down_right_point="1536.0854,1255.0231"
       id="path-effect6"
       is_visible="true"
       lpeversion="1"
       deform_type="perspective"
       horizontal_mirror="false"
       vertical_mirror="false"
       overflow_perspective="false" />
    <inkscape:path-effect
       effect="perspective-envelope"
       up_left_point="467.19301,352.87742"
       up_right_point="1775.4428,269.91846"
       down_left_point="467.31349,498.58343"
       down_right_point="1771.2047,565.21346"
       id="path-effect4"
       is_visible="true"
       lpeversion="1"
       deform_type="perspective"
       horizontal_mirror="false"
       vertical_mirror="false"
       overflow_perspective="false" />
    <inkscape:path-effect
       effect="perspective-envelope"
       up_left_point="620.29239,989.94648"
       up_right_point="1536.0854,989.94648"
       down_left_point="620.29239,1255.0231"
       down_right_point="1536.0854,1255.0231"
       id="path-effect3"
       is_visible="true"
       lpeversion="1"
       deform_type="perspective"
       horizontal_mirror="false"
       vertical_mirror="false"
       overflow_perspective="false" />
  </defs>
  <g
     inkscape:label="Capa 1"
     inkscape:groupmode="layer"
     id="layer1">
    <path
       d="m 467.19544,355.81887 29.54289,-1.80508 c 19.80972,-1.21038 33.53411,-1.20144 40.77579,0.0648 7.38914,1.27603 13.05354,3.7745 16.94873,7.50064 3.91727,3.74726 6.37635,8.04984 7.36156,12.8966 0.98653,4.79123 1.47823,14.3174 1.4741,28.57016 l -0.0152,52.66324 c -0.004,13.48825 -0.7472,22.49513 -2.22737,27.01609 -1.40661,4.45181 -3.8949,7.89369 -7.45299,10.3232 -3.53933,2.35548 -7.88568,3.92704 -13.02344,4.71939 -5.09871,0.72577 -12.70812,0.83896 -22.74264,0.34931 l -50.52576,-2.46551 z m 39.80426,22.27499 0.0346,94.85874 c 5.93259,0.17811 9.60989,-0.78697 10.99378,-2.89983 1.38684,-2.17728 2.08035,-8.12099 2.07829,-17.82925 l -0.012,-56.58523 c -0.001,-6.60196 -0.2342,-10.82522 -0.69816,-12.66811 -0.46365,-1.84167 -1.52159,-3.14831 -3.17098,-3.91937 -1.64534,-0.82895 -4.72721,-1.1471 -9.2255,-0.95695 z m 156.93706,-34.29593 29.75414,162.90046 -52.79975,-2.57648 -2.4446,-28.59451 -17.57523,-0.51094 -2.89459,27.9873 -48.21941,-2.35297 23.34973,-152.52515 z m -26.87055,103.61519 c -2.48521,-17.93543 -4.95826,-40.01267 -7.41957,-66.21659 -4.98422,30.22294 -8.08324,52.19129 -9.32354,66.05576 z m 197.79719,-114.05884 -0.62029,180.20264 -54.20134,-2.64487 -30.3155,-79.08736 -0.19062,77.59876 -46.64621,-2.2762 0.31719,-165.74872 46.74879,-2.85636 32.7767,76.6467 0.22336,-78.66301 z m 95.05608,-5.80795 -0.86653,190.63703 -68.72876,-3.35376 0.68573,-183.07288 z m 106.75302,-6.52264 -0.9366,161.93439 50.3952,1.35232 -0.2645,41.525 -127.60181,-6.22659 0.94706,-193.85225 z m 284.7787,119.54397 c -0.2137,23.46741 -1.3871,40.07579 -3.517,49.81901 -1.955,9.63179 -8.1217,18.28069 -18.4264,25.90423 -10.0384,7.55584 -23.4795,13.04145 -40.1913,16.46948 -16.4445,3.3732 -35.2526,4.49369 -56.2885,3.41873 -19.5618,-0.99962 -36.8307,-3.75216 -51.9167,-8.22047 -14.7151,-4.48181 -26.3961,-10.60315 -35.1484,-18.36178 -8.6742,-7.6895 -13.7772,-15.8459 -15.3649,-24.51057 -1.5853,-8.65149 -2.307,-23.73003 -2.1668,-45.25359 l 0.233,-35.79601 c 0.1369,-21.03488 0.9864,-35.93793 2.5505,-44.71315 1.7048,-8.88336 6.7169,-17.16293 15.0892,-24.87681 8.5873,-7.7904 20.2248,-14.11139 35.0217,-18.96501 15.0251,-4.92847 32.8048,-8.06686 53.482,-9.37804 20.0221,-1.26965 38.2906,-0.43173 54.6989,2.56831 16.8367,2.94432 30.5293,8.17242 40.9479,15.70333 10.5214,7.60528 16.7972,16.19926 18.7517,25.73765 1.9578,9.55461 2.8283,26.38314 2.6091,50.46329 z m -101.9223,-73.4708 c 0.082,-10.36598 -0.8709,-16.93074 -2.8557,-19.68843 -1.8263,-2.85074 -5.7337,-4.14007 -11.6979,-3.87296 -5.0193,0.22479 -8.8897,1.57684 -11.6243,4.05185 -2.576,2.37143 -3.9042,9.2039 -3.9896,20.49983 l -0.7738,102.34143 c -0.096,12.70798 0.6689,20.57095 2.2969,23.5953 1.781,3.03394 5.8397,4.6559 12.2039,4.86293 6.5576,0.21332 10.7876,-1.38299 12.6604,-4.79485 1.8764,-3.41837 2.8677,-11.67017 2.9712,-24.75347 z m 555.8282,-91.20695 -4.0673,283.39212 -131.0492,-6.39482 2.3265,-181.38746 -51.0229,179.01122 -81.8454,-3.99381 -44.2418,-166.67152 -1.7708,164.42624 -102.2459,-4.9893 2.2821,-238.2417 155.5652,-9.50507 c 4.7284,15.12464 9.7519,33.04444 15.0738,53.78189 l 17.3296,65.29504 32.0478,-123.01492 z"
       id="text1"
       style="font-stretch:condensed;font-size:292.862px;font-family:Impact;-inkscape-font-specification:'Impact, Condensed';stroke-width:2.39295;fill:none"
       transform="matrix(0.91007404,0,0,1.0988117,45.818182,-589.09091)"
       aria-label="DANILOM"
       inkscape:path-effect="#path-effect4"
       inkscape:original-d="m 607.26491,302.15926 h 45.04469 q 43.6147,0 58.9156,4.00398 15.44389,4.00397 23.45184,13.15591 8.00794,9.15193 10.00993,20.44886 2.00199,11.15392 2.00199,44.0437 v 81.08044 q 0,31.17379 -3.00298,41.75572 -2.85998,10.43893 -10.15293,16.44488 -7.29295,5.86296 -18.01788,8.29395 -10.72493,2.28798 -32.31778,2.28798 h -75.93248 z m 60.20259,39.61073 v 152.29396 q 13.01291,0 16.01589,-5.14796 3.00298,-5.29097 3.00298,-28.45681 V 370.5128 q 0,-15.7299 -1.001,-20.16287 -1.00099,-4.43296 -4.57596,-6.43495 -3.57498,-2.14499 -13.44191,-2.14499 z m 205.63259,-39.61073 34.46277,231.51542 h -61.63258 l -3.00298,-41.61271 h -21.59285 l -3.57498,41.61271 H 755.4119 l 30.60179,-231.51542 z m -31.88878,148.86199 q -4.57597,-39.32473 -9.15194,-97.09634 -9.15194,66.35155 -11.43992,97.09634 z M 1052.2779,302.15926 V 533.67468 H 999.51122 L 968.19444,428.4274 V 533.67468 H 917.85878 V 302.15926 h 50.33566 l 33.74776,104.24629 V 302.15926 Z m 84.3694,0 v 231.51542 h -60.2026 V 302.15926 Z m 84.3694,0 V 487.343 h 36.6077 v 46.33168 h -96.8103 V 302.15926 Z m 184.3258,135.56308 q 0,34.89176 -1.716,49.47766 -1.573,14.4429 -10.2959,26.45482 -8.58,12.01192 -23.3089,18.44687 -14.7289,6.43496 -34.3197,6.43496 -18.5899,0 -33.4618,-6.00596 -14.7289,-6.14896 -23.7379,-18.30387 -9.0089,-12.15492 -10.7249,-26.45482 -1.716,-14.29991 -1.716,-50.04966 v -39.61073 q 0,-34.89176 1.573,-49.33466 1.716,-14.5859 10.296,-26.59782 8.7229,-12.01192 23.4518,-18.44688 14.7289,-6.43495 34.3198,-6.43495 18.5898,0 33.3187,6.14896 14.8719,6.00595 23.8809,18.16087 9.0089,12.15492 10.7249,26.45482 1.716,14.2999 1.716,50.04966 z m -60.2026,-76.07548 q 0,-16.15889 -1.859,-20.59186 -1.716,-4.57597 -7.2929,-4.57597 -4.719,0 -7.293,3.71797 -2.431,3.57498 -2.431,21.44986 v 108.10726 q 0,20.16286 1.573,24.88183 1.716,4.71897 7.722,4.71897 6.1489,0 7.8649,-5.43397 1.716,-5.43396 1.716,-25.88282 z m 268.4091,-59.4876 v 231.51542 h -52.6236 V 377.37675 l -21.0209,156.29793 h -37.3227 l -22.1649,-152.72295 v 152.72295 h -52.6236 V 302.15926 h 77.9345 q 3.4319,20.87786 7.2929,49.19167 l 8.294,58.9156 13.7279,-108.10727 z" />
    <path
       d="m 620.29239,995.28886 h 40.99401 c 26.46173,0 44.33425,1.46654 53.61755,4.39962 9.37006,2.93312 16.48437,7.75172 21.34292,14.45582 4.85854,6.7042 7.89513,14.194 9.10977,22.4695 1.21464,8.1707 1.82196,24.3026 1.82196,48.3957 v 89.0922 c 0,22.8361 -0.91098,38.1299 -2.73293,45.8816 -1.7352,7.647 -4.81517,13.6703 -9.23992,18.0699 -4.42475,4.2949 -9.89061,7.3327 -16.3976,9.1135 -6.50699,1.676 -16.31085,2.514 -29.41158,2.514 l -69.10418,0 z m 54.78882,43.52474 v 167.3424 c 7.89514,0 12.75369,-1.8856 14.57564,-5.6567 1.82196,-3.8758 2.73294,-14.2987 2.73294,-31.2686 v -98.8342 c 0,-11.5228 -0.30366,-18.9079 -0.91099,-22.1552 -0.60731,-3.2473 -1.99547,-5.6043 -4.16446,-7.0708 -2.169,-1.5713 -6.24671,-2.3569 -12.23313,-2.3569 z m 187.14088,-43.52474 31.36367,254.39184 h -56.09021 l -2.73293,-45.7245 h -19.6511 l -3.25349,45.7245 h -56.74091 l 27.8499,-254.39184 z m -29.02115,163.57134 c -2.77631,-28.807 -5.55263,-64.3705 -8.32894,-106.6906 -5.55263,48.6052 -9.02303,84.1687 -10.41118,106.6906 z M 1025.2872,995.28886 v 254.39184 h -48.02162 l -28.50059,-115.6469 v 115.6469 H 902.95581 V 995.28886 l 45.80918,0 30.71296,114.54704 V 995.28886 Z m 76.7824,0 v 254.39184 l -54.7889,0 V 995.28886 Z m 76.7824,0 v 203.48204 h 33.3157 v 50.9098 h -88.1046 V 995.28886 Z m 167.7501,148.95834 c 0,25.5596 -0.5206,43.6818 -1.5617,54.3666 -0.9543,10.58 -4.0777,20.2696 -9.37,29.0689 -5.2057,8.7992 -12.2766,15.5557 -21.2129,20.2696 -8.9362,4.7139 -19.3473,7.0708 -31.2334,7.0708 -11.2788,0 -21.4297,-2.1998 -30.4527,-6.5994 -8.9363,-4.5044 -16.1374,-11.2086 -21.6033,-20.1125 -5.4658,-8.904 -8.7193,-18.5936 -9.7604,-29.0689 -1.0411,-10.4753 -1.5617,-28.807 -1.5617,-54.9951 v -43.5248 c 0,-25.5597 0.4772,-43.6295 1.4315,-54.2095 1.0411,-10.6847 4.1645,-20.4267 9.3701,-29.226 5.2923,-8.7992 12.4066,-15.5557 21.3429,-20.26962 8.9363,-4.71387 19.3475,-7.0708 31.2336,-7.0708 11.2787,0 21.3862,2.25218 30.3225,6.75655 9.023,4.39957 16.2675,11.05137 21.7334,19.95537 5.4658,8.904 8.7193,18.5936 9.7604,29.0689 1.0411,10.4753 1.5617,28.807 1.5617,54.9951 z m -54.7888,-83.5927 c 0,-11.837 -0.564,-19.3792 -1.6919,-22.6265 -1.0411,-3.3521 -3.2534,-5.0282 -6.637,-5.0282 -2.8631,0 -5.0755,1.3618 -6.6372,4.0854 -1.4749,2.6188 -2.2124,10.4752 -2.2124,23.5693 v 118.7896 c 0,14.7701 0.4772,23.8835 1.4315,27.3404 1.0411,3.4569 3.3837,5.1853 7.0276,5.1853 3.7307,0 6.1166,-1.9903 7.1577,-5.971 1.0411,-3.9806 1.5617,-13.4607 1.5617,-28.4403 z m 244.2721,-65.36564 v 254.39184 h -47.8914 v -171.742 l -19.1305,171.742 -33.9664,0 -20.1717,-167.8138 v 167.8138 H 1367.034 V 995.28886 h 70.9261 c 2.0822,15.29394 4.2946,33.31134 6.6371,54.05234 l 7.5482,64.7372 12.4934,-118.78954 z"
       id="path3"
       style="font-stretch:condensed;font-size:292.862px;font-family:Impact;-inkscape-font-specification:'Impact, Condensed';stroke-width:2.39295;fill:none"
       aria-label="DANILOM"
       inkscape:path-effect="#path-effect3"
       inkscape:original-d="m 620.29239,995.28886 h 40.99401 q 39.6926,0 53.61755,4.39962 14.05509,4.39962 21.34292,14.45582 7.28781,10.0563 9.10977,22.4695 1.82196,12.256 1.82196,48.3957 v 89.0922 q 0,34.2541 -2.73293,45.8816 -2.6028,11.4705 -9.23992,18.0699 -6.63712,6.4423 -16.3976,9.1135 -9.76049,2.514 -29.41158,2.514 h -69.10418 z m 54.78882,43.52474 v 167.3424 q 11.84271,0 14.57564,-5.6567 2.73294,-5.8137 2.73294,-31.2686 v -98.8342 q 0,-17.2842 -0.91099,-22.1552 -0.91097,-4.871 -4.16446,-7.0708 -3.2535,-2.3569 -12.23313,-2.3569 z m 187.14088,-43.52474 31.36367,254.39184 h -56.09021 l -2.73293,-45.7245 h -19.6511 l -3.25349,45.7245 h -56.74091 l 27.8499,-254.39184 z m -29.02115,163.57134 q -4.16447,-43.2105 -8.32894,-106.6906 -8.32895,72.9078 -10.41118,106.6906 z M 1025.2872,995.28886 v 254.39184 h -48.02162 l -28.50059,-115.6469 v 115.6469 H 902.95581 V 995.28886 h 45.80918 l 30.71296,114.54704 V 995.28886 Z m 76.7824,0 v 254.39184 h -54.7889 V 995.28886 Z m 76.7824,0 v 203.48204 h 33.3157 v 50.9098 h -88.1046 V 995.28886 Z m 167.7501,148.95834 q 0,38.3394 -1.5617,54.3666 -1.4315,15.87 -9.37,29.0689 -7.8085,13.1988 -21.2129,20.2696 -13.4043,7.0708 -31.2334,7.0708 -16.9182,0 -30.4527,-6.5994 -13.4044,-6.7566 -21.6033,-20.1125 -8.1987,-13.356 -9.7604,-29.0689 -1.5617,-15.7129 -1.5617,-54.9951 v -43.5248 q 0,-38.3395 1.4315,-54.2095 1.5617,-16.0271 9.3701,-29.226 7.9385,-13.1988 21.3429,-20.26962 13.4044,-7.0708 31.2336,-7.0708 16.9181,0 30.3225,6.75655 13.5345,6.59937 21.7334,19.95537 8.1987,13.356 9.7604,29.0689 1.5617,15.7129 1.5617,54.9951 z m -54.7888,-83.5927 q 0,-17.7555 -1.6919,-22.6265 -1.5616,-5.0282 -6.637,-5.0282 -4.2947,0 -6.6372,4.0854 -2.2124,3.9282 -2.2124,23.5693 v 118.7896 q 0,22.1551 1.4315,27.3404 1.5617,5.1853 7.0276,5.1853 5.596,0 7.1577,-5.971 1.5617,-5.9709 1.5617,-28.4403 z m 244.2721,-65.36564 v 254.39184 h -47.8914 v -171.742 l -19.1305,171.742 h -33.9664 l -20.1717,-167.8138 v 167.8138 H 1367.034 V 995.28886 h 70.9261 q 3.1233,22.94084 6.6371,54.05234 l 7.5482,64.7372 12.4934,-118.78954 z" />
    <g
       sodipodi:type="inkscape:box3d"
       id="g6"
       style="fill:none"
       inkscape:perspectiveID="#perspective6"
       inkscape:corner0="1.8387097 : 0.56251347 : 0 : 1"
       inkscape:corner7="0.065375301 : 0.13654362 : 1.2300614 : 1">
      <path
         sodipodi:type="inkscape:box3dside"
         id="path11"
         style="fill:none;fill-rule:evenodd;stroke:none;stroke-linejoin:round"
         inkscape:box3dsidetype="11"
         d="M 883.75439,524.21416 1514.4573,451.58537 V 637.15784 L 883.75439,628.90667 Z"
         points="1514.4573,451.58537 1514.4573,637.15784 883.75439,628.90667 883.75439,524.21416 " />
      <path
         sodipodi:type="inkscape:box3dside"
         id="path6"
         style="fill:none;fill-rule:evenodd;stroke:none;stroke-linejoin:round"
         inkscape:box3dsidetype="6"
         d="M 405.54279,483.47714 V 633.5347 l 478.2116,-4.62803 V 524.21416 Z"
         points="405.54279,633.5347 883.75439,628.90667 883.75439,524.21416 405.54279,483.47714 " />
      <path
         sodipodi:type="inkscape:box3dside"
         id="path10"
         style="fill:none;fill-rule:evenodd;stroke:none;stroke-linejoin:round"
         inkscape:box3dsidetype="13"
         d="m 405.54279,633.5347 562.90912,25.48124 546.00539,-21.8581 -630.70291,-8.25117 z"
         points="968.45191,659.01594 1514.4573,637.15784 883.75439,628.90667 405.54279,633.5347 " />
      <path
         sodipodi:type="inkscape:box3dside"
         id="path7"
         style="fill:none;fill-rule:evenodd;stroke:none;stroke-linejoin:round"
         inkscape:box3dsidetype="5"
         d="M 405.54279,483.47714 968.45191,259.18515 1514.4573,451.58537 883.75439,524.21416 Z"
         points="968.45191,259.18515 1514.4573,451.58537 883.75439,524.21416 405.54279,483.47714 " />
      <path
         sodipodi:type="inkscape:box3dside"
         id="path9"
         style="fill:none;fill-rule:evenodd;stroke:none;stroke-linejoin:round"
         inkscape:box3dsidetype="14"
         d="m 968.45191,259.18515 v 399.83079 l 546.00539,-21.8581 V 451.58537 Z"
         points="968.45191,659.01594 1514.4573,637.15784 1514.4573,451.58537 968.45191,259.18515 " />
      <path
         sodipodi:type="inkscape:box3dside"
         id="path8"
         style="fill:none;fill-rule:evenodd;stroke:none;stroke-linejoin:round"
         inkscape:box3dsidetype="3"
         d="M 405.54279,483.47714 968.45191,259.18515 V 659.01594 L 405.54279,633.5347 Z"
         points="968.45191,259.18515 968.45191,659.01594 405.54279,633.5347 405.54279,483.47714 " />
    </g>
    <path
       d="m 1260.3497,306.57076 c -12.3065,-4.19619 -23.4467,-5.594 -33.2857,-4.0521 -10.1161,1.58529 -18.3608,6.05912 -24.597,13.48503 -6.2355,7.58205 -10.0038,17.02149 -11.2282,28.24566 -1.1213,11.17013 -1.6154,30.62728 -1.4777,58.33101 l 0.2341,47.1074 c 0.1407,28.30271 0.8821,48.13195 2.2176,59.47715 1.3304,11.30167 5.3354,21.74888 11.9305,31.24237 6.4781,9.3245 14.8158,16.15172 24.8833,20.51127 9.8827,4.13033 20.667,5.91566 32.2586,5.45162 11.8034,-0.47252 21.8035,-3.10023 30.1448,-7.80055 8.1338,-4.5835 14.4204,-10.8879 18.9621,-18.91733 4.5528,-7.91674 7.1998,-16.56545 7.9871,-26.01236 0.8589,-9.51545 1.2588,-25.68916 1.2024,-48.55015 l -0.096,-38.97559 c -0.058,-23.47946 -0.5397,-40.0364 -1.4484,-49.67752 -0.9116,-9.67206 -3.7249,-19.21406 -8.4938,-28.71618 -4.843,-9.64987 -11.3665,-17.88531 -19.67,-24.72288 -8.4388,-7.08904 -18.2423,-12.58025 -29.5236,-16.42685 z m -359.34305,266.25338 109.85515,-3.5571 -2.8862,-341.54741 -111.01089,-36.99608 z m 147.14635,-331.71476 2.5102,326.86889 130.3234,-4.21987 -0.2865,-55.56571 -44.6065,-1.81052 -1.4228,-236.43944 z m 287.9734,95.97154 0.4748,221.63867 36.0106,-1.16602 -0.1985,-137.29659 14.1168,136.84592 21.9589,-0.71103 11.5526,-129.15273 0.068,128.77646 26.987,-0.87384 -6e-4,-181.07862 -41.526,-13.83919 -7.8989,90.53606 -4.9864,-52.00929 c -1.5684,-16.87077 -3.0564,-31.64993 -4.4644,-44.30881 z m -75.3592,11.93901 c 3.4178,0.95322 5.6384,3.2049 6.6874,6.75427 1.1317,3.45925 1.717,10.92575 1.7565,22.40936 l 0.3886,113.14356 c 0.05,14.46176 -0.4339,23.59088 -1.4508,27.40296 -1.0197,3.82329 -3.3924,5.69796 -7.1469,5.61662 -3.7076,-0.0803 -6.1182,-1.83667 -7.2052,-5.2759 -1.0007,-3.44738 -1.5308,-12.48542 -1.5859,-27.11286 l -0.4448,-117.94499 c -0.049,-13.0338 0.69,-20.65 2.2107,-22.83753 1.6033,-2.25711 3.8714,-2.96959 6.7904,-2.15549 z"
       id="path4"
       style="font-stretch:condensed;font-size:292.862px;font-family:Impact;-inkscape-font-specification:'Impact, Condensed';stroke-width:1.93605"
       aria-label="DANILOM"
       inkscape:path-effect="#path-effect15"
       inkscape:original-d="m 1163.0117,370.24609 c -13.3537,0 -25.0501,1.37457 -35.0898,4.1211 -10.0398,2.74653 -18.0324,6.68175 -23.9785,11.80859 -5.8482,5.12686 -9.3577,10.80385 -10.5274,17.0293 -1.0722,6.16441 -1.6094,16.69172 -1.6094,31.58398 v 25.35938 c 0,15.25844 0.5862,25.93958 1.7559,32.04297 1.1697,6.10338 4.8241,11.74961 10.9648,16.9375 6.141,5.18785 14.2316,9.09427 24.2715,11.71875 10.137,2.56342 21.5415,3.8457 34.2129,3.8457 13.3539,0 25.0502,-1.37458 35.0899,-4.12109 10.0396,-2.74654 17.9836,-6.68177 23.832,-11.8086 5.9458,-5.12687 9.4552,-10.77309 10.5273,-16.9375 1.1697,-6.22547 1.7539,-16.7855 1.7539,-31.67773 v -25.35938 c 0,-15.25844 -0.5842,-25.93958 -1.7539,-32.04297 -1.1698,-6.10338 -4.824,-11.74764 -10.9648,-16.93554 -6.1407,-5.18788 -14.2809,-9.06355 -24.418,-11.62696 -10.0396,-2.62446 -21.3947,-3.9375 -34.0664,-3.9375 z M 901.09091,521.58008 h 58.39737 V 373.35937 h -58.39737 z m 83.10636,-148.22071 v 148.22071 h 98.98433 v -29.66211 h -37.4296 v -118.5586 z m 272.97263,0 v 148.22071 h 53.8047 v -97.77735 l 22.6641,97.77735 h 38.1601 l 21.4922,-100.06446 v 100.06446 h 53.8047 V 373.35937 h -80.2676 l -14.0371,69.2129 -8.4805,-37.71875 c -2.6317,-12.08469 -5.1156,-22.58319 -7.455,-31.49415 z m -93.8652,21.97266 c 3.8015,0 6.2856,0.97658 7.4551,2.92969 1.2672,1.89205 1.9023,6.28484 1.9023,13.18164 v 68.11523 c 0,8.72782 -0.5861,14.25103 -1.7558,16.57032 -1.1695,2.31934 -3.8499,3.47851 -8.0411,3.47851 -4.0938,0 -6.7249,-1.00734 -7.8945,-3.02148 -1.0722,-2.01413 -1.6094,-7.32395 -1.6094,-15.92969 v -69.21289 c 0,-7.62922 0.8294,-12.20659 2.4864,-13.73242 1.7545,-1.5869 4.2404,-2.37891 7.457,-2.37891 z"
       transform="translate(67.360965,78.226199)" />
    <path
       id="path12"
       d="m 1163.0117,370.24609 c -13.3537,0 -25.0501,1.37457 -35.0898,4.1211 -10.0398,2.74653 -18.0324,6.68175 -23.9785,11.80859 -5.8482,5.12686 -9.3577,10.80385 -10.5274,17.0293 -1.0722,6.16441 -1.6094,16.69172 -1.6094,31.58398 v 25.35938 c 0,15.25844 0.5862,25.93958 1.7559,32.04297 1.1697,6.10338 4.8241,11.74961 10.9648,16.9375 6.141,5.18785 14.2316,9.09427 24.2715,11.71875 10.137,2.56342 21.5415,3.8457 34.2129,3.8457 13.3539,0 25.0502,-1.37458 35.0899,-4.12109 10.0396,-2.74654 17.9836,-6.68177 23.832,-11.8086 5.9458,-5.12687 9.4552,-10.77309 10.5273,-16.9375 1.1697,-6.22547 1.7539,-16.7855 1.7539,-31.67773 v -25.35938 c 0,-15.25844 -0.5842,-25.93958 -1.7539,-32.04297 -1.1698,-6.10338 -4.824,-11.74764 -10.9648,-16.93554 -6.1407,-5.18788 -14.2809,-9.06355 -24.418,-11.62696 -10.0396,-2.62446 -21.3947,-3.9375 -34.0664,-3.9375 z M 932.65869,521.58008 h 26.82959 V 373.35937 h -26.82959 z m 51.53858,-148.22071 v 148.22071 h 98.98433 v -29.66211 h -37.4296 v -118.5586 z m 272.97263,0 v 148.22071 h 53.8047 v -97.77735 l 22.6641,97.77735 h 38.1601 l 21.4922,-100.06446 v 100.06446 h 53.8047 V 373.35937 h -80.2676 l -14.0371,69.2129 -8.4805,-37.71875 c -2.6317,-12.08469 -5.1156,-22.58319 -7.455,-31.49415 z m -93.8652,21.97266 c 3.8015,0 6.2856,0.97658 7.4551,2.92969 1.2672,1.89205 1.9023,6.28484 1.9023,13.18164 v 68.11523 c 0,8.72782 -0.5861,14.25103 -1.7558,16.57032 -1.1695,2.31934 -3.8499,3.47851 -8.0411,3.47851 -4.0938,0 -6.7249,-1.00734 -7.8945,-3.02148 -1.0722,-2.01413 -1.6094,-7.32395 -1.6094,-15.92969 v -69.21289 c 0,-7.62922 0.8294,-12.20659 2.4864,-13.73242 1.7545,-1.5869 4.2404,-2.37891 7.457,-2.37891 z"
       style="font-stretch:condensed;font-size:292.862px;font-family:Impact;-inkscape-font-specification:'Impact, Condensed';display:none;stroke-width:1.93605" />
    <path
       id="path13"
       d="m 338.18182,405.25094 0,150.05756 39.38164,1.15832 c 8.45003,0.24854 15.0099,-0.1286 19.47915,-1.15541 4.56576,-1.12184 8.47625,-3.16501 11.69318,-6.14269 3.26499,-3.09676 5.56365,-7.3964 6.8648,-12.89018 1.37458,-5.60284 2.0527,-16.64074 2.02821,-33.08146 l -0.0954,-64.04572 c -0.0258,-17.29316 -0.50501,-28.72494 -1.43482,-34.28627 -0.92583,-5.61172 -3.20944,-10.17299 -6.80883,-13.65818 -3.54019,-3.42776 -8.61615,-4.9027 -15.11835,-4.47431 -6.24854,0.39355 -17.76511,3.83702 -33.68152,9.95022 z m 108.27927,-41.58809 -22.60146,194.16567 49.48807,1.45558 3.07314,-37.24037 20.02554,-0.90273 3.03028,38.91162 67.96798,1.99913 -40.83995,-229.17059 z m 132.95752,-51.06656 1.13407,249.841 73.4661,2.16084 -0.75509,-127.66091 56.19543,129.29156 117.17014,3.4463 -3.20854,-350.79554 -111.42049,42.79457 0.9629,136.7643 -60.6006,-113.85855 z m 319.65133,-122.77224 -9.24235,3.54982 3.93529,378.27579 9.349,0.27498 z M 368.64216,421.3154 c 3.64091,-1.14143 6.16041,-1.42227 7.51405,-0.82294 1.36285,0.53507 2.24013,1.80642 2.62649,3.8154 0.38715,2.01298 0.5839,6.80037 0.58975,14.35743 l 0.0502,64.90556 c 0.009,11.16055 -0.56571,18.05088 -1.71825,20.65608 -1.14611,2.52218 -4.17446,3.88109 -9.00103,4.08138 z m 117.18042,-25.67247 c 2.93405,34.4263 5.88847,63.61448 8.86273,87.45496 l -18.99547,2.2505 c 1.3114,-18.53234 4.66314,-48.24718 10.13274,-89.70546 z"
       style="font-stretch:condensed;font-size:292.862px;font-family:Impact;-inkscape-font-specification:'Impact, Condensed';display:inline;stroke-width:1.93605"
       inkscape:path-effect="#path-effect14"
       inkscape:original-d="m 418.2207,373.35937 v 148.22071 h 77.63672 c 14.71839,0 25.73444,-0.48834 33.04492,-1.46485 7.31047,-1.03758 13.45076,-2.80814 18.42188,-5.31054 4.97112,-2.56341 8.43141,-6.07184 10.38086,-10.52735 2.04693,-4.51648 3.07031,-13.42704 3.07031,-26.73242 v -51.91015 c 0,-14.03781 -0.68224,-23.43665 -2.04687,-28.19727 -1.36463,-4.82168 -4.77591,-9.18562 -10.23438,-13.0918 -5.45852,-3.90615 -13.45145,-6.71487 -23.97852,-8.42383 -10.42963,-1.70894 -30.50904,-2.5625 -60.23828,-2.5625 z m 182.76172,0 -31.28906,148.22071 h 63.74805 l 3.65429,-26.64063 h 22.07813 l 3.07031,26.64063 h 63.01758 L 690.02344,373.35937 Z m 134.80469,0 v 148.22071 h 51.4668 v -67.38086 l 32.01953,67.38086 h 53.95117 V 373.35937 h -51.46484 v 66.74024 l -34.50586,-66.74024 z m 165.3038,0 h -3.15732 v 148.22071 h 3.15732 z m -421.31552,25.35938 c 6.72562,0 11.30732,0.45755 13.74414,1.37305 2.43683,0.85447 3.99544,2.22709 4.67774,4.11914 0.68232,1.89206 1.02343,6.19643 1.02343,12.91015 v 57.58399 c 0,9.88748 -1.02337,15.96051 -3.07031,18.21875 -2.04693,2.19724 -7.50494,3.29687 -16.375,3.29687 z M 648.0625,406.5 c 3.11913,24.65768 6.23826,45.37972 9.35742,62.16406 H 636.36523 C 637.92479,455.54174 641.82422,434.8197 648.0625,406.5 Z"
       sodipodi:nodetypes="ccscccsscscsccccccccccccccccccccccccccccsssccccccc"
       transform="translate(65.255734,79.1257)" />
  </g>
</svg>
